:version 1.10
:name ASF
:units
  mass 1
  length 1
  angle deg
:documentation
  ASF file generated by Kaydara
:root
  axis xyz
  order  tx ty tz rx ry rz
  position 0 0 0
  orientation 0 0 0
:bonedata
  begin
    id 1
    name LeftUpLegDummy
    direction 1 -2.30186e-007 -8.31532e-007
    length 2.93387
    axis 0 0 0 xyz
  end
  begin
    id 2
    name LeftUpLeg
    direction -1.82929e-007 -1 -1.48925e-009
    length 17.3336
    axis -3.48766 0.00143442 -0.000521554 xyz
    dof rx ry rz
  end
  begin
    id 3
    name LeftLeg
    direction -1.82929e-007 -1 -5.23717e-011
    length 14.9995
    axis 3.68178 -0.00654042 -0.000282425 xyz
    dof rx ry rz
  end
  begin
    id 4
    name LeftFoot
    direction 8.31532e-007 -4.54534e-011 1
    length 6.74421
    axis 1.87234e-006 4.66016e-005 -5.96866e-006 xyz
    dof rx ry rz
  end
  begin
    id 5
    name LeftToes
    direction 0.00818058 -0.00485161 0.999955
    length 3.85048
    axis 1.06247e-005 4.65869e-005 -5.96999e-006 xyz
    dof rx ry rz
  end
  begin
    id 6
    name SpineDummy
    direction -5.8607e-008 0.943407 -0.331637
    length 5.93572
    axis 0 0 0 xyz
  end
  begin
    id 7
    name Spine
    direction -1.04988e-007 0.999988 0.00495137
    length 10.1015
    axis -0.001389 0.000121417 6.61666e-006 xyz
    dof rx ry rz
  end
  begin
    id 8
    name Spine1
    direction 0 0 0
    length 0
    axis -0.001389 0.00012144 6.56766e-006 xyz
    dof rx ry rz
  end
  begin
    id 9
    name RightShoulderDummy
    direction -0.98348 0.17941 -0.0240696
    length 3.59882
    axis -0.001389 0.00012144 6.56766e-006 xyz
  end
  begin
    id 10
    name RightShoulder
    direction -0.978693 0.204882 0.0135597
    length 2.70001
    axis 0.215806 0.000203631 -0.00679732 xyz
    dof rx ry rz
  end
  begin
    id 11
    name RightArm
    direction -1 3.85509e-006 8.31394e-007
    length 10.2459
    axis -23.2009 -0.134239 -0.964098 xyz
    dof rx ry rz
  end
  begin
    id 12
    name RightForeArm
    direction -1 3.85569e-006 8.3129e-007
    length 8.16799
    axis -9.92322 0.0658061 0.17887 xyz
    dof rx ry rz
  end
  begin
    id 13
    name RightHand
    direction -0.992843 -0.0414604 0.112003
    length 5.28593
    axis -0.00960638 0.00330669 -0.185225 xyz
    dof rx ry rz
  end
  begin
    id 14
    name LeftShoulder1Dummy
    direction 0.983523 0.179172 -0.0240748
    length 3.59866
    axis -0.001389 0.00012144 6.56766e-006 xyz
  end
  begin
    id 15
    name LeftShoulder1
    direction 0.978627 0.205195 0.0135605
    length 2.70019
    axis -0.001389 0.00012144 6.57583e-006 xyz
    dof rx ry rz
  end
  begin
    id 16
    name LeftArm
    direction 1 3.51895e-006 -8.60188e-007
    length 10.2459
    axis -23.1894 0.134785 0.967513 xyz
    dof rx ry rz
  end
  begin
    id 17
    name LeftForeArm
    direction 1 3.51921e-006 -7.32029e-007
    length 8.16799
    axis -9.91835 -0.0656957 -0.177789 xyz
    dof rx ry rz
  end
  begin
    id 18
    name LeftHand
    direction 0.992938 -0.0411636 0.11126
    length 5.32135
    axis -0.00960237 -0.00340661 0.185177 xyz
    dof rx ry rz
  end
  begin
    id 19
    name HEadDummy
    direction 1.01974e-006 0.999861 -0.016675
    length 2.99946
    axis -0.001389 0.00012144 6.56766e-006 xyz
  end
  begin
    id 20
    name HEad
    direction -0.0222689 0.980941 0.193023
    length 5.12695
    axis -0.001389 0.00012144 6.56766e-006 xyz
    dof rx ry rz
  end
  begin
    id 21
    name RightUpLegDummy
    direction -1 2.30186e-007 8.31532e-007
    length 2.93387
    axis 0 0 0 xyz
  end
  begin
    id 22
    name RightUpLeg
    direction -1.82966e-007 -1 1.56832e-007
    length 17.3336
    axis -3.4909 -0.000906625 0.00028951 xyz
    dof rx ry rz
  end
  begin
    id 23
    name RightLeg
    direction -1.82786e-007 -1 -1.80317e-007
    length 14.9995
    axis 3.68513 0.0193739 -0.131021 xyz
    dof rx ry rz
  end
  begin
    id 24
    name RightFoot
    direction 8.31721e-007 -4.63324e-011 1
    length 6.74421
    axis 4.81691e-005 -0.120479 -0.188785 xyz
    dof rx ry rz
  end
  begin
    id 25
    name RightToes
    direction 0.00124746 -0.014064 0.9999
    length 3.85082
    axis 0.000481921 0.542163 -0.142575 xyz
    dof rx ry rz
  end
:hierarchy
  begin
    root LeftUpLegDummy SpineDummy RightUpLegDummy
    LeftUpLegDummy LeftUpLeg
    LeftUpLeg LeftLeg
    LeftLeg LeftFoot
    LeftFoot LeftToes
    SpineDummy Spine
    Spine Spine1
    Spine1 RightShoulderDummy LeftShoulder1Dummy HEadDummy
    RightShoulderDummy RightShoulder
    RightShoulder RightArm
    RightArm RightForeArm
    RightForeArm RightHand
    LeftShoulder1Dummy LeftShoulder1
    LeftShoulder1 LeftArm
    LeftArm LeftForeArm
    LeftForeArm LeftHand
    HEadDummy HEad
    RightUpLegDummy RightUpLeg
    RightUpLeg RightLeg
    RightLeg RightFoot
    RightFoot RightToes
  end

:SAMPLES-PER-SECOND 30
:FULLY-SPECIFIED
:DEGREES
33
root  2.98404 33.8837 0.0948181 2.45736 -24.6357 2.47248
LeftUpLeg  -4.04327 18.7935 1.66739
LeftLeg  18.6808 19.8639 5.19977
LeftFoot  -6.95162 -0.158584 -2.60698
LeftToes  -8.44457 8.556e-007 1.17171e-007
Spine  1.60582 -7.35034 4.63295
Spine1  2.69693 -14.7633 8.93763
RightShoulder  0.0916934 4.0514 10.3807
RightArm  -35.0392 -14.7604 63.8188
RightForeArm  29.61 12.568 2.24954
RightHand  1.41788 -13.9225 -11.1986
LeftShoulder1  -0.0130624 -2.95067 1.62398
LeftArm  32.1989 -34.7067 -95.5194
LeftForeArm  112.264 -51.4691 -166.985
LeftHand  0.344448 19.5499 1.62866
HEad  4.07324 -54.3066 12.6129
RightUpLeg  -15.7649 2.95838 -7.35982
RightLeg  11.391 30.5075 3.94934
RightFoot  7.90581 -0.302866 4.7049
RightToes  -35.4164 -0.182948 -0.287264
34
root  3.02427 33.8843 0.0693563 2.33427 -24.3989 2.50089
LeftUpLeg  -4.06456 18.6863 1.61177
LeftLeg  18.761 19.7233 5.19338
LeftFoot  -7.06183 -0.162122 -2.62695
LeftToes  -8.35306 8.556e-007 1.17171e-007
Spine  1.60319 -7.3218 4.54763
Spine1  2.70831 -14.7052 8.77931
RightShoulder  0.0914312 4.07238 10.2753
RightArm  -35.0775 -15.1853 63.8842
RightForeArm  29.6506 12.586 2.25284
RightHand  1.41821 -13.9509 -11.1954
LeftShoulder1  -0.0137679 -2.89478 1.59072
LeftArm  32.2987 -34.5781 -95.253
LeftForeArm  113.167 -51.1745 -167.118
LeftHand  0.39764 19.2942 1.96835
HEad  4.79628 -54.2289 11.9856
RightUpLeg  -15.6375 2.89317 -7.45241
RightLeg  11.2866 30.3638 3.879
RightFoot  7.98337 -0.305363 4.72256
RightToes  -35.5377 -0.184342 -0.288295
35
root  3.06482 33.8861 0.0481408 2.20407 -24.2046 2.53261
LeftUpLeg  -4.03571 18.6272 1.56194
LeftLeg  18.7622 19.5934 5.16112
LeftFoot  -7.02325 -0.159098 -2.59217
LeftToes  -8.47046 8.556e-007 1.17171e-007
Spine  1.5937 -7.28382 4.45909
Spine1  2.70853 -14.6225 8.609
RightShoulder  0.0908523 4.1172 10.1503
RightArm  -35.1322 -15.4938 63.9448
RightForeArm  29.6452 12.6346 2.2618
RightHand  1.41952 -13.9434 -11.1944
LeftShoulder1  -0.0144173 -2.79634 1.56617
LeftArm  32.4798 -34.3992 -95.0708
LeftForeArm  113.755 -50.9422 -167.221
LeftHand  0.44529 19.1087 2.27433
HEad  5.48615 -54.1081 11.3365
RightUpLeg  -15.4943 2.8483 -7.54117
RightLeg  11.1554 30.2258 3.79612
RightFoot  8.08093 -0.309237 4.75288
RightToes  -35.7218 -0.185637 -0.289324
36
root  3.11153 33.888 0.0306992 2.08044 -24.0226 2.56152
LeftUpLeg  -4.00271 18.6058 1.51109
LeftLeg  18.753 19.448 5.12121
LeftFoot  -6.907 -0.152548 -2.52741
LeftToes  -8.64748 8.556e-007 1.17171e-007
Spine  1.57649 -7.24273 4.36953
Spine1  2.69283 -14.53 8.43177
RightShoulder  0.0899236 4.13326 10.018
RightArm  -35.2005 -15.6489 64.0149
RightForeArm  29.7201 12.7204 2.27761
RightHand  1.41323 -13.9265 -11.1576
LeftShoulder1  -0.0150034 -2.70393 1.54059
LeftArm  32.754 -34.2099 -94.8555
LeftForeArm  114.69 -50.7014 -167.326
LeftHand  0.529433 18.867 2.81474
HEad  6.29165 -53.9984 10.6237
RightUpLeg  -15.3398 2.8532 -7.64814
RightLeg  10.9835 30.0654 3.6906
RightFoot  8.17524 -0.314511 4.77597
RightToes  -35.8422 -0.186758 -0.290329
37
root  3.15954 33.8897 0.0157053 1.86183 -23.8476 2.64078
LeftUpLeg  -3.89595 18.4977 1.42014
LeftLeg  18.7644 19.4064 5.11477
LeftFoot  -6.78447 -0.146774 -2.47578
LeftToes  -8.58916 8.556e-007 1.17171e-007
Spine  1.56767 -7.20136 4.23992
Spine1  2.69827 -14.4341 8.16702
RightShoulder  0.0877342 4.16394 9.9834
RightArm  -35.1766 -15.6989 64.0412
RightForeArm  29.7552 12.8336 2.29854
RightHand  1.40777 -13.8903 -11.1433
LeftShoulder1  -0.0156408 -2.61992 1.59569
LeftArm  32.8976 -33.8859 -94.61
LeftForeArm  115.248 -50.5276 -167.402
LeftHand  0.599356 18.7521 3.25754
HEad  6.94022 -53.8897 10.0354
RightUpLeg  -15.1173 2.88419 -7.8064
RightLeg  10.8257 29.8977 3.59226
RightFoot  8.267 -0.319343 4.79605
RightToes  -36.0377 -0.187629 -0.291291
38
root  3.21065 33.8902 0.00431185 1.74282 -23.6629 2.6454
LeftUpLeg  -3.89503 18.4106 1.36815
LeftLeg  18.8348 19.3416 5.12324
LeftFoot  -6.59767 -0.13827 -2.39855
LeftToes  -8.74355 8.556e-007 1.17171e-007
Spine  1.55399 -7.14288 4.18073
Spine1  2.68674 -14.3033 8.04305
RightShoulder  0.0856383 4.17597 9.85853
RightArm  -35.0802 -15.6193 64.0292
RightForeArm  29.6057 13.0426 2.33732
RightHand  1.39609 -13.8527 -11.0794
LeftShoulder1  -0.0164271 -2.53026 1.60073
LeftArm  33.1528 -33.5176 -94.5265
LeftForeArm  115.699 -50.3959 -167.458
LeftHand  0.687388 18.5906 3.82663
HEad  7.08812 -53.7133 9.71009
RightUpLeg  -14.9658 2.75529 -7.89063
RightLeg  10.6988 29.8747 3.52579
RightFoot  8.33692 -0.324805 4.83149
RightToes  -36.0642 -0.18783 -0.29219
39
root  3.25984 33.8902 -0.0131272 1.46106 -23.4248 2.74625
LeftUpLeg  -3.77053 18.3792 1.28238
LeftLeg  18.8647 19.207 5.0996
LeftFoot  -6.31202 -0.125528 -2.27631
LeftToes  -8.92093 8.556e-007 1.17171e-007
Spine  1.57338 -7.09926 4.0491
Spine1  2.74947 -14.1991 7.76366
RightShoulder  0.0837401 4.16888 9.90155
RightArm  -34.7886 -15.4566 64.0092
RightForeArm  29.3056 13.3346 2.39167
RightHand  1.40485 -13.912 -11.1016
LeftShoulder1  -0.0173297 -2.44396 1.66698
LeftArm  33.3309 -33.0744 -94.3241
LeftForeArm  116.662 -50.3259 -167.485
LeftHand  0.769373 18.2651 4.41168
HEad  7.11398 -53.4681 9.58699
RightUpLeg  -14.6838 2.73455 -8.06906
RightLeg  10.5541 29.6969 3.43419
RightFoot  8.39702 -0.327181 4.83185
RightToes  -36.2551 -0.188747 -0.293005
40
root  3.31584 33.8908 -0.0266143 1.37136 -23.2273 2.73425
LeftUpLeg  -3.7431 18.3931 1.24313
LeftLeg  18.8023 19.0696 5.04293
LeftFoot  -6.12242 -0.117085 -2.1891
LeftToes  -8.84713 8.556e-007 1.17171e-007
Spine  1.56091 -7.02715 4.00504
Spine1  2.73819 -14.0399 7.66658
RightShoulder  0.0816269 4.22263 9.78626
RightArm  -34.7767 -15.2617 64.0076
RightForeArm  29.2103 13.6381 2.44818
RightHand  1.37743 -13.7965 -10.9736
LeftShoulder1  -0.0183161 -2.3739 1.64633
LeftArm  33.5959 -32.7104 -94.2329
LeftForeArm  116.867 -50.3481 -167.474
LeftHand  0.80521 18.0041 4.70778
HEad  6.75094 -53.2845 9.55633
RightUpLeg  -14.573 2.71247 -8.15928
RightLeg  10.464 29.5576 3.37459
RightFoot  8.47409 -0.331591 4.84875
RightToes  -36.3499 -0.189919 -0.293588
41
root  3.37209 33.893 -0.0485423 1.16485 -22.9593 2.79862
LeftUpLeg  -3.65329 18.3232 1.15539
LeftLeg  18.7561 18.9289 4.9913
LeftFoot  -5.93009 -0.108843 -2.10116
LeftToes  -8.96522 8.556e-007 1.17171e-007
Spine  1.57167 -6.97076 3.91316
Spine1  2.77855 -13.9099 7.46872
RightShoulder  0.0793161 4.22472 9.76629
RightArm  -34.5642 -14.9717 64.0358
RightForeArm  28.9836 13.9319 2.5031
RightHand  1.37466 -13.7558 -10.9846
LeftShoulder1  -0.019354 -2.31774 1.64836
LeftArm  33.6088 -32.3818 -94.0562
LeftForeArm  117.341 -50.4619 -167.421
LeftHand  0.793849 17.7059 4.72179
HEad  6.43788 -53.2465 9.64088
RightUpLeg  -14.3718 2.69145 -8.31877
RightLeg  10.3618 29.3462 3.30189
RightFoot  8.55822 -0.335785 4.85554
RightToes  -36.5325 -0.191276 -0.294506
42
root  3.43075 33.895 -0.0787325 0.972434 -22.6049 2.86287
LeftUpLeg  -3.61524 18.2223 1.05977
LeftLeg  18.7468 18.73 4.9378
LeftFoot  -5.78067 -0.102142 -2.02287
LeftToes  -8.9707 8.556e-007 1.17171e-007
Spine  1.57947 -6.92585 3.82095
Spine1  2.81107 -13.8031 7.27261
RightShoulder  0.0763753 4.17697 9.71749
RightArm  -34.3746 -14.6669 64.1633
RightForeArm  28.7146 14.2601 2.56464
RightHand  1.36513 -13.7452 -10.915
LeftShoulder1  -0.0204107 -2.27748 1.65223
LeftArm  33.5307 -32.1172 -93.8925
LeftForeArm  117.953 -50.496 -167.403
LeftHand  0.80359 17.388 4.87973
HEad  5.93586 -53.1717 9.93866
RightUpLeg  -14.1589 2.71041 -8.49333
RightLeg  10.2029 29.0064 3.18904
RightFoot  8.6715 -0.339423 4.85171
RightToes  -36.7491 -0.192747 -0.295555
43
root  3.49196 33.8972 -0.1164 0.772256 -22.2159 2.93542
LeftUpLeg  -3.56923 18.176 0.964435
LeftLeg  18.6984 18.4497 4.85051
LeftFoot  -5.64766 -0.0957954 -1.94195
LeftToes  -9.11971 8.556e-007 1.17171e-007
Spine  1.59426 -6.8848 3.71407
Spine1  2.85795 -13.7054 7.04815
RightShoulder  0.0732958 4.16206 9.70521
RightArm  -34.1299 -14.3848 64.3104
RightForeArm  28.4637 14.5782 2.62446
RightHand  1.35616 -13.7159 -10.8654
LeftShoulder1  -0.0214538 -2.27873 1.6257
LeftArm  33.3578 -31.9515 -93.632
LeftForeArm  118.214 -50.5905 -167.36
LeftHand  0.780827 17.1032 4.81734
HEad  5.51692 -52.9663 10.2216
RightUpLeg  -13.9637 2.72189 -8.68031
RightLeg  10.0921 28.6417 3.09862
RightFoot  8.77855 -0.34261 4.83845
RightToes  -36.8775 -0.194263 -0.296696
